<svg width="437" height="103" viewBox="0 0 437 103" fill="none" xmlns="http://www.w3.org/2000/svg">
<path d="M13.7722 13.2899C13.6968 13.7279 12.829 19.3331 11.6993 37.0438C11.3985 49.3749 11.651 68.4947 11.6435 79.4255C11.6359 90.3564 11.3606 92.5189 10.2676 95.082" stroke="#8F00FF" stroke-width="6" stroke-linecap="round"/>
<path d="M22.7548 73.6605C22.0026 70.1821 24.5886 52.6281 28.5226 28.0702C30.3248 16.8206 32.1315 13.6662 33.64 12.0193C34.3385 11.2566 35.4866 11.306 36.5385 12.2746C37.5905 13.2432 38.6614 15.2992 41.6313 27.7884C44.6012 40.2776 49.4377 63.1377 54.4208 86.6905" stroke="#8F00FF" stroke-width="6" stroke-linecap="round"/>
<path d="M23.6461 72.599C23.6522 72.5632 23.6584 72.5274 23.244 62.7905C22.8296 53.0535 21.9944 33.6165 21.463 23.2642C20.9317 12.912 20.7295 12.2335 20.5211 11.5345" stroke="#8F00FF" stroke-width="6" stroke-linecap="round"/>
<path d="M67 42.24C64.8133 44.9067 63.72 48.6667 63.72 53.52C63.72 58.3733 64.8133 62.1333 67 64.8C69.24 67.4133 72.3333 68.72 76.28 68.72C80.1733 68.72 83.1867 67.4133 85.32 64.8C87.5067 62.1333 88.6 58.3733 88.6 53.52C88.6 48.6667 87.5067 44.9067 85.32 42.24C83.1867 39.5733 80.1733 38.24 76.28 38.24C72.3333 38.24 69.24 39.5733 67 42.24ZM62.12 53.52C62.12 47.2267 63.4533 42.3733 66.12 38.96C68.7867 35.5467 72.4933 33.84 77.24 33.84C81.9333 33.84 85.8267 35.6 88.92 39.12C92.0133 42.64 93.56 47.52 93.56 53.76C93.56 59.7333 92.0933 64.48 89.16 68C86.2267 71.4667 82.3867 73.2 77.64 73.2C72.7333 73.2 68.92 71.4933 66.2 68.08C63.48 64.6667 62.12 59.8133 62.12 53.52ZM58.84 17.04H63.72V35.2L61.88 45.04L63.72 45.6V61.6L61.88 62.16L63.72 72H58.84V17.04ZM103.614 53.44C103.614 58.3467 104.68 62.1333 106.814 64.8C109 67.4133 112.04 68.72 115.934 68.72C119.88 68.72 122.947 67.4133 125.134 64.8C127.32 62.1333 128.414 58.3467 128.414 53.44C128.414 48.5867 127.294 44.8533 125.054 42.24C122.867 39.5733 119.827 38.24 115.934 38.24C112.04 38.24 109 39.5733 106.814 42.24C104.68 44.8533 103.614 48.5867 103.614 53.44ZM98.6538 53.44C98.6538 47.2 100.2 42.3733 103.294 38.96C106.44 35.5467 110.654 33.84 115.934 33.84C120.947 33.84 125.107 35.6 128.414 39.12C131.72 42.5867 133.374 47.36 133.374 53.44C133.374 59.68 131.8 64.5333 128.654 68C125.507 71.4667 121.267 73.2 115.934 73.2C110.654 73.2 106.44 71.4667 103.294 68C100.2 64.5333 98.6538 59.68 98.6538 53.44ZM144.579 58.16C144.579 61.4133 145.539 64.0267 147.459 66C149.379 67.9733 151.886 68.96 154.979 68.96C158.179 68.96 160.793 67.9467 162.819 65.92C164.846 63.84 165.859 61.2 165.859 58H166.899C166.899 62.5333 165.619 66.2133 163.059 69.04C160.499 71.8133 157.139 73.2 152.979 73.2C149.193 73.2 146.019 71.84 143.459 69.12C140.953 66.4 139.699 63.04 139.699 59.04V35.2H144.579V58.16ZM170.899 72H165.859L167.699 62.16L165.859 61.6V35.2H170.899V72ZM204.688 49.04C204.688 45.84 203.728 43.2533 201.808 41.28C199.941 39.3067 197.461 38.32 194.368 38.32C191.168 38.32 188.528 39.3333 186.447 41.36C184.421 43.3867 183.408 46 183.408 49.2H182.448C182.448 44.6667 183.701 41.0133 186.208 38.24C188.768 35.4133 192.128 34 196.288 34C200.074 34 203.248 35.36 205.808 38.08C208.421 40.8 209.728 44.16 209.728 48.16V72H204.688V49.04ZM178.528 35.2H183.408L181.568 45.04L183.408 45.6V72H178.528V35.2ZM242.636 64.8C244.822 62.1333 245.916 58.3733 245.916 53.52C245.916 48.6133 244.822 44.8533 242.636 42.24C240.449 39.5733 237.409 38.24 233.516 38.24C229.569 38.24 226.502 39.5733 224.316 42.24C222.129 44.8533 221.036 48.6133 221.036 53.52C221.036 58.4267 222.129 62.1867 224.316 64.8C226.502 67.4133 229.569 68.72 233.516 68.72C237.409 68.72 240.449 67.4133 242.636 64.8ZM243.436 38.96C246.102 42.3733 247.436 47.2267 247.436 53.52C247.436 59.8133 246.076 64.6667 243.356 68.08C240.689 71.4933 236.929 73.2 232.076 73.2C227.329 73.2 223.462 71.4667 220.476 68C217.542 64.5333 216.076 59.7867 216.076 53.76C216.076 47.52 217.649 42.64 220.796 39.12C223.942 35.6 227.836 33.84 232.476 33.84C237.169 33.84 240.822 35.5467 243.436 38.96ZM250.956 17.04V72H245.916L247.596 62.16L245.916 61.6V45.6L247.756 45.04L245.916 35.2V17.04H250.956ZM275.715 17.04H280.595V72H275.715V17.04ZM291.975 54.88C292.295 59.3067 293.575 62.72 295.815 65.12C298.108 67.52 301.202 68.72 305.095 68.72C308.242 68.72 310.855 67.8933 312.935 66.24C315.068 64.5333 316.428 62.24 317.015 59.36L321.655 60.32C320.748 64.3733 318.828 67.5467 315.895 69.84C312.962 72.08 309.362 73.2 305.095 73.2C299.442 73.2 294.988 71.44 291.735 67.92C288.535 64.4 286.935 59.5733 286.935 53.44C286.935 47.36 288.455 42.5867 291.495 39.12C294.588 35.6 298.828 33.84 304.215 33.84C309.655 33.84 313.922 35.6 317.015 39.12C320.108 42.5867 321.655 47.2 321.655 52.96V54.88H291.975ZM292.135 50.88H316.615C316.615 47.2533 315.442 44.24 313.095 41.84C310.748 39.44 307.788 38.24 304.215 38.24C300.802 38.24 298.055 39.3333 295.975 41.52C293.895 43.7067 292.615 46.8267 292.135 50.88ZM331.661 62.96C331.661 64.8267 332.461 66.24 334.061 67.2C335.714 68.16 337.901 68.64 340.621 68.64C344.194 68.64 347.101 67.6533 349.341 65.68C351.634 63.6533 352.781 61.0933 352.781 58H353.901C353.901 62.5867 352.567 66.2667 349.901 69.04C347.234 71.8133 343.714 73.2 339.341 73.2C335.714 73.2 332.701 72.24 330.301 70.32C327.901 68.4 326.701 65.9467 326.701 62.96C326.701 60.4 327.501 58.3733 329.101 56.88C330.701 55.3867 333.127 54.1867 336.381 53.28L352.781 49.36V53.6L338.061 56.88C335.714 57.4133 334.061 58.1867 333.101 59.2C332.141 60.2133 331.661 61.4667 331.661 62.96ZM357.741 72H352.781L354.621 62.24L352.781 61.6V47.68C352.781 44.96 351.821 42.7733 349.901 41.12C348.034 39.4133 345.554 38.56 342.461 38.56C339.367 38.56 336.834 39.44 334.861 41.2C332.941 42.9067 331.821 45.1733 331.501 48L326.701 47.04C327.287 43.2 328.994 40.08 331.821 37.68C334.647 35.2267 338.247 34 342.621 34C347.101 34 350.727 35.2533 353.501 37.76C356.327 40.2133 357.741 43.2267 357.741 46.8V72ZM390.604 64.8C392.791 62.1333 393.884 58.3733 393.884 53.52C393.884 48.6133 392.791 44.8533 390.604 42.24C388.418 39.5733 385.378 38.24 381.484 38.24C377.538 38.24 374.471 39.5733 372.284 42.24C370.098 44.8533 369.004 48.6133 369.004 53.52C369.004 58.4267 370.098 62.1867 372.284 64.8C374.471 67.4133 377.538 68.72 381.484 68.72C385.378 68.72 388.418 67.4133 390.604 64.8ZM391.404 38.96C394.071 42.3733 395.404 47.2267 395.404 53.52C395.404 59.8133 394.044 64.6667 391.324 68.08C388.658 71.4933 384.898 73.2 380.044 73.2C375.298 73.2 371.431 71.4667 368.444 68C365.511 64.5333 364.044 59.7867 364.044 53.76C364.044 47.52 365.618 42.64 368.764 39.12C371.911 35.6 375.804 33.84 380.444 33.84C385.138 33.84 388.791 35.5467 391.404 38.96ZM398.924 17.04V72H393.884L395.564 62.16L393.884 61.6V45.6L395.724 45.04L393.884 35.2V17.04H398.924ZM434.494 62.4C434.494 65.6533 433.268 68.32 430.814 70.4C428.361 72.4267 425.188 73.44 421.294 73.44C417.294 73.44 413.828 72.2933 410.894 70C407.961 67.7067 406.094 64.5067 405.294 60.4L409.774 59.28C410.574 62.48 411.934 64.9333 413.854 66.64C415.774 68.2933 418.148 69.12 420.974 69.12C423.534 69.12 425.588 68.5067 427.134 67.28C428.734 66.0533 429.534 64.4533 429.534 62.48C429.534 62 429.454 61.5467 429.294 61.12C429.188 60.6933 428.974 60.32 428.654 60C428.388 59.6267 428.121 59.3067 427.854 59.04C427.588 58.7733 427.188 58.5067 426.654 58.24C426.121 57.9733 425.668 57.76 425.294 57.6C424.974 57.44 424.441 57.2533 423.694 57.04C422.948 56.7733 422.388 56.5867 422.014 56.48C421.641 56.3733 421.001 56.1867 420.094 55.92C419.241 55.6533 418.628 55.4933 418.254 55.44C416.814 55.0133 415.614 54.64 414.654 54.32C413.694 54 412.574 53.5467 411.294 52.96C410.068 52.32 409.081 51.6533 408.334 50.96C407.641 50.2133 407.028 49.3067 406.494 48.24C406.014 47.12 405.774 45.8667 405.774 44.48C405.774 41.2267 406.921 38.64 409.214 36.72C411.561 34.8 414.681 33.84 418.574 33.84C426.841 33.84 432.014 37.8667 434.094 45.92L429.534 47.12C427.934 41.1467 424.388 38.16 418.894 38.16C416.388 38.16 414.388 38.72 412.894 39.84C411.401 40.96 410.654 42.48 410.654 44.4C410.654 45.2 410.841 45.92 411.214 46.56C411.588 47.2 412.041 47.7333 412.574 48.16C413.161 48.5867 413.934 49.0133 414.894 49.44C415.908 49.8667 416.814 50.2133 417.614 50.48C418.414 50.6933 419.481 50.9867 420.814 51.36C421.028 51.4133 421.348 51.4933 421.774 51.6C423.374 52.08 424.601 52.4533 425.454 52.72C426.308 52.9867 427.401 53.44 428.734 54.08C430.121 54.6667 431.134 55.3067 431.774 56C432.468 56.64 433.081 57.52 433.614 58.64C434.201 59.76 434.494 61.0133 434.494 62.4Z" fill="#1E1E1E"/>
</svg>
